<svg xmlns="http://www.w3.org/2000/svg" xmlns:xlink="http://www.w3.org/1999/xlink" width="500" zoomAndPan="magnify" viewBox="0 0 375 374.999991" height="500" preserveAspectRatio="xMidYMid meet" version="1.0"><defs><g/><clipPath id="51fbb8be2a"><path d="M 37.5 114.3125 L 183.75 114.3125 L 183.75 260.5625 L 37.5 260.5625 Z M 37.5 114.3125 " clip-rule="nonzero"/></clipPath></defs><g clip-path="url(#51fbb8be2a)"><path fill="#ff6d12" d="M 60.882812 153.246094 C 61.132812 154.078125 60.878906 154.894531 60.3125 155.066406 C 59.746094 155.242188 59.085938 154.710938 58.832031 153.878906 C 58.582031 153.046875 58.835938 152.230469 59.402344 152.058594 C 59.96875 151.882812 60.628906 152.414062 60.882812 153.246094 Z M 103.394531 140.398438 C 102.269531 145.183594 101.578125 149.824219 101.324219 154.328125 L 112.796875 154.9375 C 109.992188 150.710938 107.945312 145.792969 106.660156 140.179688 Z M 98.703125 181.84375 L 99.082031 185.046875 C 102.867188 186.46875 108.347656 186.820312 115.519531 186.097656 C 116.046875 183.9375 103.027344 184.417969 98.703125 181.84375 Z M 115.082031 204.605469 L 110.535156 198.804688 C 106.566406 198.632812 102.386719 197.664062 98.003906 195.890625 C 98.882812 199.921875 100.398438 202.410156 102.550781 203.351562 C 105.402344 204.324219 109.582031 204.742188 115.082031 204.605469 Z M 85.191406 206.804688 L 87.109375 216.808594 C 90.996094 214.976562 94.875 214.417969 98.753906 215.136719 L 93.277344 204.605469 C 91.199219 205.054688 88.5 205.785156 85.191406 206.804688 Z M 147.398438 206.433594 C 147.574219 208.796875 147.753906 211.585938 147.636719 212.648438 C 143.988281 210.167969 140.964844 209.492188 137.792969 210.492188 L 140.484375 213.75 C 146.910156 215.003906 149.644531 215.625 159.265625 218.628906 C 158.957031 215.632812 158.472656 212.75 156.996094 210.347656 C 154.960938 209.351562 151.761719 208.046875 147.398438 206.433594 Z M 183.746094 187.433594 C 183.746094 227.816406 151.007812 260.554688 110.621094 260.554688 C 70.238281 260.554688 37.5 227.820312 37.5 187.433594 C 37.5 147.046875 70.238281 114.3125 110.621094 114.3125 C 151.007812 114.3125 183.746094 147.046875 183.746094 187.433594 Z M 75.089844 227.214844 C 68.628906 227.0625 61.390625 223.90625 55.652344 219.652344 C 54.761719 220.652344 53.90625 221.726562 53.082031 222.871094 C 58.71875 232.003906 66.472656 239.691406 75.65625 245.257812 C 75.886719 239.621094 75.667969 233.6875 75.089844 227.214844 Z M 60.613281 181.664062 C 59.589844 184.808594 64.789062 189.957031 65.347656 197.265625 L 62.570312 208.648438 C 65.074219 210.457031 68.980469 211.535156 71.835938 211.621094 L 75.148438 201.09375 C 75.355469 197.011719 72.183594 191.40625 67.957031 185.839844 C 68.761719 185.214844 69.558594 183.910156 70.351562 181.925781 C 71.882812 181.667969 72.652344 181.703125 74.089844 180.976562 L 76.65625 182.28125 C 79.011719 183.179688 80.371094 180.554688 78.335938 179.292969 L 73.789062 176.863281 L 68.34375 177.929688 L 64.335938 180.757812 C 63.746094 181.050781 63.007812 179.941406 63.800781 179.246094 L 67.394531 176.355469 C 69.5 176.238281 71.515625 175.875 73.4375 175.261719 L 77.40625 176.648438 C 79.449219 177.417969 80.578125 174.308594 78.394531 173.507812 L 72.851562 171.523438 L 67.011719 171.914062 L 62.632812 175.355469 C 62.101562 175.671875 61.496094 174.222656 62.257812 173.644531 C 64.335938 172.179688 66.0625 170.871094 66.628906 169.945312 C 68.707031 170.238281 70.632812 170.109375 72.402344 169.554688 L 76.945312 171.042969 C 78.898438 171.6875 80.1875 168.710938 77.832031 167.765625 L 71.765625 165.761719 L 65.460938 166.347656 L 62.234375 169.125 C 61.679688 169.554688 61.042969 168.421875 61.792969 167.636719 L 64.773438 164.800781 L 69.464844 163.839844 L 74.238281 164.292969 C 75.933594 164.414062 76.980469 161.660156 74.441406 161.183594 C 72.46875 160.8125 69.570312 160.460938 68.070312 160.476562 C 66.679688 160.488281 63.722656 162.296875 62.738281 162.640625 C 60.960938 163.972656 59.363281 167.96875 58.917969 171.445312 C 57.707031 173.78125 57.941406 175.503906 58.835938 177.226562 C 58.664062 180.003906 59.476562 181.011719 60.613281 181.664062 Z M 65.027344 159.46875 L 62.023438 152.050781 C 59.742188 147.738281 56.488281 149.03125 57.695312 153.410156 L 61.085938 161.546875 C 62.199219 160.824219 63.175781 159.914062 65.027344 159.46875 Z M 76.214844 213.882812 C 75.710938 214.492188 75.160156 214.96875 74.632812 215.398438 L 75.226562 223.320312 C 75.96875 222.699219 76.5625 221.796875 77.003906 220.601562 Z M 71.75 185.746094 L 75.5 193.695312 C 76.011719 194.847656 76.914062 195.199219 77.800781 194.90625 L 73.824219 183.871094 C 73.019531 184.136719 72.324219 184.761719 71.75 185.746094 Z M 78.976562 203.179688 C 78.914062 202.921875 78.847656 202.660156 78.78125 202.402344 C 78.316406 202.980469 77.8125 203.53125 77.277344 204.050781 C 77.851562 203.75 78.417969 203.460938 78.976562 203.179688 Z M 79.386719 185.996094 C 78.402344 185.160156 77.492188 184.550781 76.65625 184.175781 L 79.632812 193.136719 C 80.441406 191.558594 80.667969 189.066406 79.386719 185.996094 Z M 60.210938 211.378906 C 58.808594 212.3125 57.976562 213.761719 57.265625 216.597656 C 63.140625 220.59375 68.796875 223.332031 72.484375 223.855469 L 72.140625 215.523438 C 66.65625 214.144531 63.144531 213.273438 60.210938 211.378906 Z M 79.882812 207.082031 C 79.285156 207.460938 78.683594 207.859375 78.070312 208.28125 C 78.042969 209.128906 77.949219 209.871094 77.804688 210.527344 L 79.003906 221.230469 C 81.152344 227.6875 82.210938 238.289062 81.144531 248.246094 C 81.40625 248.371094 81.664062 248.5 81.925781 248.621094 C 83.988281 236.582031 83.328125 222.746094 79.882812 207.082031 Z M 168.558594 222.222656 C 165.324219 212.367188 159.207031 207.21875 144.734375 203.597656 C 145.738281 205.066406 145.957031 207.46875 145.773438 209.914062 C 142.714844 207.691406 140.246094 207.070312 135.1875 209.46875 L 137.898438 213.230469 C 133.621094 219.582031 131.261719 228.042969 132.269531 239.085938 C 132.378906 240.917969 129.066406 241.789062 128.367188 238.914062 C 127.5625 228.988281 125.457031 223.542969 119.9375 217.675781 C 112.28125 215.214844 109.242188 218.980469 106.949219 223.261719 C 101.78125 218.769531 98.183594 211.613281 94.214844 201.605469 C 89.9375 202.214844 86.507812 203.382812 83.101562 205.191406 C 86.917969 222 87.671875 236.980469 85.277344 250.082031 C 85.980469 250.367188 86.691406 250.636719 87.40625 250.898438 L 88.050781 246.464844 C 101.398438 247.226562 113.664062 247.226562 124.851562 246.464844 C 124.90625 249.324219 124.730469 251.703125 124.320312 253.609375 C 128.5 252.75 132.535156 251.503906 136.390625 249.910156 L 136.625 245.023438 C 140.484375 244.832031 143.992188 244.574219 147.230469 244.234375 C 152.183594 241.035156 156.691406 237.203125 160.640625 232.859375 C 160.515625 228.675781 160.289062 224.835938 160.132812 221.863281 C 160.148438 220.910156 161.636719 220.425781 161.867188 221.457031 C 162.496094 224.167969 163.019531 226.875 163.4375 229.574219 C 165.300781 227.246094 167.011719 224.789062 168.558594 222.222656 Z M 135.808594 154.140625 C 135.773438 153.203125 134.867188 153.007812 134.75 154.148438 L 132.84375 171.058594 C 132.566406 174.792969 137.164062 176.097656 137.898438 171.972656 L 140.570312 155.738281 C 140.671875 154.496094 140.101562 154.214844 139.941406 154.972656 C 139.355469 160.371094 135.285156 159.929688 135.808594 154.140625 Z M 137.890625 156.261719 C 138.296875 156.324219 138.734375 155.257812 138.867188 153.875 C 139 152.492188 138.777344 151.324219 138.371094 151.257812 C 137.964844 151.195312 137.527344 152.261719 137.394531 153.644531 C 137.261719 155.027344 137.480469 156.199219 137.890625 156.261719 Z M 130.902344 207.648438 L 131.0625 222.066406 C 131.621094 218.933594 132.875 215.707031 134.453125 213.210938 L 131.511719 208.769531 C 134.691406 206.046875 138.660156 205.0625 142.589844 205.417969 C 140.558594 200.328125 137.066406 196.859375 133.320312 194.835938 C 133.074219 197.902344 132.15625 203.121094 130.902344 207.648438 Z M 131.59375 182.421875 C 127.71875 198.070312 125.804688 208.0625 112.382812 207.933594 C 117.742188 209.359375 122.996094 208.601562 128.140625 205.667969 C 129.527344 202.277344 130.9375 194.273438 131.59375 182.421875 Z M 128.136719 209.339844 C 124.746094 210.65625 122.21875 211.628906 117.871094 211.304688 C 121.03125 213.96875 123.945312 216.203125 128.90625 225.976562 Z M 101.789062 210.917969 C 102.738281 214.308594 104.398438 216.335938 106.574219 218.917969 C 108.09375 216.128906 111.125 213.449219 117.015625 214.472656 L 109.570312 208.992188 C 106.628906 210.445312 103.8125 211.214844 101.789062 210.917969 Z M 117.109375 204.9375 C 119.0625 203.789062 121.636719 199.375 124.828125 191.691406 C 114.351562 197.515625 104.78125 197.960938 95.515625 193.484375 C 97.132812 199.292969 98.714844 203.035156 100.863281 204.257812 C 107.71875 205.800781 113.132812 206.027344 117.109375 204.9375 Z M 129.070312 140.15625 C 117.726562 135.007812 108.554688 135.300781 101.726562 139.589844 C 99.691406 144.667969 98.082031 150.171875 97.914062 155.589844 L 118.214844 156.558594 L 114.128906 159.398438 L 114.234375 163.5625 L 118.507812 161.785156 L 117.367188 181.050781 C 111.398438 181.777344 102.914062 180.679688 95.636719 179.882812 L 96.304688 185.730469 C 99.945312 187.082031 110.53125 188.175781 117.839844 186.980469 L 125.007812 182.828125 C 124.253906 162.191406 125.519531 147.796875 129.070312 140.15625 Z M 115.863281 178.355469 L 115.695312 175.402344 L 110.726562 165.898438 L 107.335938 165.695312 L 114.703125 178.269531 Z M 100.503906 165.285156 L 107.371094 177.742188 L 110.371094 177.957031 L 103.039062 165.4375 Z M 96.816406 165.0625 C 96.292969 168.855469 96.4375 173.21875 97.242188 177.007812 L 104.96875 177.566406 L 98.25 165.148438 Z M 95.574219 158.757812 L 95.335938 162.554688 L 112.039062 163.589844 L 112.039062 159.625 Z M 170.152344 219.414062 C 175.28125 209.894531 178.191406 199.003906 178.191406 187.433594 C 178.191406 150.117188 147.941406 119.867188 110.621094 119.867188 C 73.304688 119.867188 43.054688 150.117188 43.054688 187.433594 C 43.054688 199.339844 46.140625 210.523438 51.546875 220.242188 C 52.292969 219.214844 53.039062 218.246094 53.78125 217.304688 C 54.972656 212.234375 57.390625 208.554688 59.902344 207.628906 L 62.785156 197.75 C 61.605469 188.695312 58.722656 188.042969 58.628906 182.984375 C 57.933594 182.570312 56.0625 180.949219 57.003906 178.191406 C 55.675781 177.453125 55.367188 173.855469 56.878906 171.160156 C 57.832031 166.367188 58.765625 165.039062 59.644531 163.574219 L 55.851562 153.539062 C 53.863281 147.535156 59.316406 145.359375 62.871094 147.152344 L 74.707031 131.113281 C 75.554688 130.03125 77.632812 131.851562 76.941406 132.933594 L 64.9375 149.105469 L 70.105469 158.828125 C 79.941406 159.0625 78.832031 164.632812 75.972656 165.542969 C 76.929688 165.730469 77.792969 166.027344 78.558594 166.433594 C 80.441406 159.886719 85.949219 162.261719 84.753906 165.371094 C 83.117188 168.722656 82.40625 172.019531 82.613281 175.253906 C 84.402344 184.832031 83.988281 192.480469 81.371094 198.207031 C 81.679688 199.355469 81.972656 200.496094 82.253906 201.625 C 86.09375 199.917969 89.78125 198.710938 93.859375 198.089844 C 92.082031 192.671875 92.296875 187.464844 93.261719 183.097656 C 90.042969 164.015625 92.097656 149.347656 98.332031 139.246094 C 108.347656 129.480469 131.695312 131.996094 141.648438 149.308594 C 146.894531 160.675781 141.949219 177.550781 134.355469 179.875 L 133.558594 191.480469 C 137.671875 194.128906 140.734375 197.171875 142.902344 200.6875 C 159.90625 205.078125 166.613281 209.710938 170.152344 219.414062 Z M 170.152344 219.414062 " fill-opacity="1" fill-rule="nonzero"/></g><g fill="#ffffff" fill-opacity="1"><g transform="translate(187.499992, 181.499988)"><g><path d="M 17.140625 -7.796875 L 7.0625 -7.796875 L 4.734375 0 L 0.875 0 L 10.5 -29.859375 L 13.71875 -29.859375 L 23.359375 0 L 19.5 0 Z M 8.046875 -11.03125 L 16.1875 -11.03125 L 12.09375 -24.609375 Z M 8.046875 -11.03125 "/></g></g></g><g fill="#ffffff" fill-opacity="1"><g transform="translate(211.615209, 181.499988)"><g><path d="M 7 -3.21875 L 18.703125 -3.21875 L 18.703125 0 L 3.21875 0 L 3.21875 -29.859375 L 7 -29.859375 Z M 7 -3.21875 "/></g></g></g><g fill="#ffffff" fill-opacity="1"><g transform="translate(231.48531, 181.499988)"><g><path d="M 17.140625 -7.796875 L 7.0625 -7.796875 L 4.734375 0 L 0.875 0 L 10.5 -29.859375 L 13.71875 -29.859375 L 23.359375 0 L 19.5 0 Z M 8.046875 -11.03125 L 16.1875 -11.03125 L 12.09375 -24.609375 Z M 8.046875 -11.03125 "/></g></g></g><g fill="#ffffff" fill-opacity="1"><g transform="translate(255.600527, 181.499988)"><g><path d="M 8.0625 -29.859375 L 15.859375 -5.5 L 23.640625 -29.859375 L 28.484375 -29.859375 L 28.484375 0 L 24.734375 0 L 24.734375 -11.625 L 25.078125 -23.28125 L 17.265625 0 L 14.390625 0 L 6.625 -23.1875 L 6.96875 -11.625 L 6.96875 0 L 3.21875 0 L 3.21875 -29.859375 Z M 8.0625 -29.859375 "/></g></g></g><g fill="#ffffff" fill-opacity="1"><g transform="translate(287.242111, 181.499988)"><g><path d="M 22.640625 -12.3125 C 22.640625 -8.226562 21.769531 -5.085938 20.03125 -2.890625 C 18.300781 -0.691406 15.835938 0.40625 12.640625 0.40625 C 9.554688 0.40625 7.125 -0.660156 5.34375 -2.796875 C 3.5625 -4.941406 2.632812 -7.96875 2.5625 -11.875 L 2.5625 -17.5 C 2.5625 -21.488281 3.441406 -24.613281 5.203125 -26.875 C 6.972656 -29.132812 9.4375 -30.265625 12.59375 -30.265625 C 15.738281 -30.265625 18.1875 -29.179688 19.9375 -27.015625 C 21.695312 -24.847656 22.597656 -21.753906 22.640625 -17.734375 Z M 18.890625 -17.53125 C 18.890625 -20.6875 18.375 -23.035156 17.34375 -24.578125 C 16.3125 -26.117188 14.726562 -26.890625 12.59375 -26.890625 C 10.53125 -26.890625 8.96875 -26.109375 7.90625 -24.546875 C 6.84375 -22.984375 6.304688 -20.6875 6.296875 -17.65625 L 6.296875 -12.3125 C 6.296875 -9.257812 6.820312 -6.929688 7.875 -5.328125 C 8.9375 -3.734375 10.519531 -2.9375 12.625 -2.9375 C 14.738281 -2.9375 16.300781 -3.671875 17.3125 -5.140625 C 18.320312 -6.617188 18.847656 -8.882812 18.890625 -11.9375 Z M 18.890625 -17.53125 "/></g></g></g><g fill="#ffffff" fill-opacity="1"><g transform="translate(187.499992, 221.249985)"><g><path d="M 8.921875 -9.40625 L 9.3125 -6.078125 L 9.90625 -9.03125 L 14.6875 -29.859375 L 17.828125 -29.859375 L 22.453125 -9.03125 L 23.046875 -5.984375 L 23.484375 -9.4375 L 27.125 -29.859375 L 30.890625 -29.859375 L 24.9375 0 L 21.546875 0 L 16.578125 -21.765625 L 16.265625 -23.515625 L 15.953125 -21.765625 L 10.78125 0 L 7.390625 0 L 1.453125 -29.859375 L 5.203125 -29.859375 Z M 8.921875 -9.40625 "/></g></g></g><g fill="#ffffff" fill-opacity="1"><g transform="translate(219.408178, 221.249985)"><g><path d="M 17.53125 -13.796875 L 6.96875 -13.796875 L 6.96875 -3.21875 L 19.28125 -3.21875 L 19.28125 0 L 3.21875 0 L 3.21875 -29.859375 L 19.078125 -29.859375 L 19.078125 -26.625 L 6.96875 -26.625 L 6.96875 -17.015625 L 17.53125 -17.015625 Z M 17.53125 -13.796875 "/></g></g></g><g fill="#ffffff" fill-opacity="1"><g transform="translate(240.180622, 221.249985)"><g><path d="M 7 -3.21875 L 18.703125 -3.21875 L 18.703125 0 L 3.21875 0 L 3.21875 -29.859375 L 7 -29.859375 Z M 7 -3.21875 "/></g></g></g><g fill="#ffffff" fill-opacity="1"><g transform="translate(260.050722, 221.249985)"><g><path d="M 3.21875 0 L 3.21875 -29.859375 L 10.34375 -29.859375 C 13.820312 -29.859375 16.523438 -28.765625 18.453125 -26.578125 C 20.378906 -24.398438 21.34375 -21.335938 21.34375 -17.390625 L 21.34375 -12.390625 C 21.34375 -8.429688 20.363281 -5.375 18.40625 -3.21875 C 16.457031 -1.070312 13.625 0 9.90625 0 Z M 6.96875 -26.625 L 6.96875 -3.21875 L 9.984375 -3.21875 C 12.628906 -3.21875 14.554688 -3.972656 15.765625 -5.484375 C 16.984375 -6.992188 17.609375 -9.234375 17.640625 -12.203125 L 17.640625 -17.5 C 17.640625 -20.632812 17.03125 -22.9375 15.8125 -24.40625 C 14.601562 -25.882812 12.78125 -26.625 10.34375 -26.625 Z M 6.96875 -26.625 "/></g></g></g><g fill="#ffffff" fill-opacity="1"><g transform="translate(283.940354, 221.249985)"><g><path d="M 7.140625 0 L 3.390625 0 L 3.390625 -29.859375 L 7.140625 -29.859375 Z M 7.140625 0 "/></g></g></g><g fill="#ffffff" fill-opacity="1"><g transform="translate(294.356353, 221.249985)"><g><path d="M 22.71875 0 L 18.953125 0 L 7 -23.015625 L 7 0 L 3.21875 0 L 3.21875 -29.859375 L 7 -29.859375 L 18.984375 -6.75 L 18.984375 -29.859375 L 22.71875 -29.859375 Z M 22.71875 0 "/></g></g></g><g fill="#ffffff" fill-opacity="1"><g transform="translate(320.276258, 221.249985)"><g><path d="M 21.90625 -3.71875 L 21.25 -2.890625 C 19.363281 -0.691406 16.601562 0.40625 12.96875 0.40625 C 9.738281 0.40625 7.203125 -0.660156 5.359375 -2.796875 C 3.523438 -4.941406 2.585938 -7.96875 2.546875 -11.875 L 2.546875 -17.734375 C 2.546875 -21.921875 3.378906 -25.054688 5.046875 -27.140625 C 6.722656 -29.222656 9.234375 -30.265625 12.578125 -30.265625 C 15.421875 -30.265625 17.644531 -29.472656 19.25 -27.890625 C 20.851562 -26.304688 21.738281 -24.046875 21.90625 -21.109375 L 18.15625 -21.109375 C 18 -22.960938 17.476562 -24.410156 16.59375 -25.453125 C 15.71875 -26.503906 14.382812 -27.03125 12.59375 -27.03125 C 10.445312 -27.03125 8.875 -26.328125 7.875 -24.921875 C 6.875 -23.523438 6.351562 -21.289062 6.3125 -18.21875 L 6.3125 -12.125 C 6.3125 -9.113281 6.882812 -6.804688 8.03125 -5.203125 C 9.1875 -3.597656 10.835938 -2.796875 12.984375 -2.796875 C 15.003906 -2.796875 16.539062 -3.285156 17.59375 -4.265625 L 18.15625 -4.78125 L 18.15625 -11.671875 L 12.6875 -11.671875 L 12.6875 -14.875 L 21.90625 -14.875 Z M 21.90625 -3.71875 "/></g></g></g></svg>